<svg width="141" height="45" viewBox="0 0 141 45" fill="none" xmlns="http://www.w3.org/2000/svg">
<path d="M16.7407 0.233359C9.28866 0.194874 3.19648 6.22586 3.158 13.6765C3.11952 21.1272 9.1505 27.2208 16.6011 27.2592C24.0518 27.2977 30.1454 21.2681 30.1839 13.8175C30.2223 6.36684 24.1914 0.271836 16.7407 0.233359ZM16.6245 22.7319C11.6701 22.7063 7.66116 18.6543 7.68673 13.7013C7.71231 8.7483 11.7643 4.73793 16.7173 4.76351C21.6717 4.7891 25.6807 8.8411 25.6551 13.7941C25.6295 18.7471 21.5789 22.7575 16.6245 22.7319Z" fill="#18B168"/>
<path d="M12.3232 31.8625C12.147 32.1561 11.8851 32.3901 11.5715 32.5336C11.8024 32.291 12.0544 32.0669 12.3232 31.8625Z" fill="#00F940"/>
<path d="M10.3067 44.2981C9.81001 44.1476 9.41029 43.7777 9.21826 43.3032C9.55463 43.6615 9.9179 43.9945 10.3067 44.2981Z" fill="#00F940"/>
<path d="M2.55834 35.1252C3.41912 35.1296 4.12052 34.4354 4.12497 33.5747C4.12941 32.7139 3.43522 32.0125 2.57444 32.008C1.71367 32.0036 1.01227 32.6978 1.00782 33.5586C1.00337 34.4193 1.69757 35.1207 2.55834 35.1252Z" fill="#3C5A99"/>
<path d="M64.746 20.448C65.466 20.676 66.03 21.06 66.438 21.6C66.846 22.128 67.05 22.782 67.05 23.562C67.05 24.666 66.618 25.518 65.754 26.118C64.902 26.706 63.654 27 62.01 27H55.494V14.4H61.65C63.186 14.4 64.362 14.694 65.178 15.282C66.006 15.87 66.42 16.668 66.42 17.676C66.42 18.288 66.27 18.834 65.97 19.314C65.682 19.794 65.274 20.172 64.746 20.448ZM58.392 16.596V19.566H61.29C62.01 19.566 62.556 19.44 62.928 19.188C63.3 18.936 63.486 18.564 63.486 18.072C63.486 17.58 63.3 17.214 62.928 16.974C62.556 16.722 62.01 16.596 61.29 16.596H58.392ZM61.794 24.804C62.562 24.804 63.138 24.678 63.522 24.426C63.918 24.174 64.116 23.784 64.116 23.256C64.116 22.212 63.342 21.69 61.794 21.69H58.392V24.804H61.794ZM69.0597 13.644H71.8677V27H69.0597V13.644ZM79.0817 27.144C78.0617 27.144 77.1437 26.934 76.3277 26.514C75.5237 26.082 74.8937 25.488 74.4377 24.732C73.9817 23.976 73.7537 23.118 73.7537 22.158C73.7537 21.198 73.9817 20.34 74.4377 19.584C74.8937 18.828 75.5237 18.24 76.3277 17.82C77.1437 17.388 78.0617 17.172 79.0817 17.172C80.1017 17.172 81.0137 17.388 81.8177 17.82C82.6217 18.24 83.2517 18.828 83.7077 19.584C84.1637 20.34 84.3917 21.198 84.3917 22.158C84.3917 23.118 84.1637 23.976 83.7077 24.732C83.2517 25.488 82.6217 26.082 81.8177 26.514C81.0137 26.934 80.1017 27.144 79.0817 27.144ZM79.0817 24.84C79.8017 24.84 80.3897 24.6 80.8457 24.12C81.3137 23.628 81.5477 22.974 81.5477 22.158C81.5477 21.342 81.3137 20.694 80.8457 20.214C80.3897 19.722 79.8017 19.476 79.0817 19.476C78.3617 19.476 77.7677 19.722 77.2997 20.214C76.8317 20.694 76.5977 21.342 76.5977 22.158C76.5977 22.974 76.8317 23.628 77.2997 24.12C77.7677 24.6 78.3617 24.84 79.0817 24.84ZM96.2587 17.316V25.38C96.2587 27.156 95.7967 28.476 94.8727 29.34C93.9487 30.204 92.5987 30.636 90.8227 30.636C89.8867 30.636 88.9987 30.522 88.1587 30.294C87.3187 30.066 86.6227 29.736 86.0707 29.304L87.1867 27.288C87.5947 27.624 88.1107 27.888 88.7347 28.08C89.3587 28.284 89.9827 28.386 90.6067 28.386C91.5787 28.386 92.2927 28.164 92.7487 27.72C93.2167 27.288 93.4507 26.628 93.4507 25.74V25.326C92.7187 26.13 91.6987 26.532 90.3907 26.532C89.5027 26.532 88.6867 26.34 87.9427 25.956C87.2107 25.56 86.6287 25.008 86.1967 24.3C85.7647 23.592 85.5487 22.776 85.5487 21.852C85.5487 20.928 85.7647 20.112 86.1967 19.404C86.6287 18.696 87.2107 18.15 87.9427 17.766C88.6867 17.37 89.5027 17.172 90.3907 17.172C91.7947 17.172 92.8627 17.634 93.5947 18.558V17.316H96.2587ZM90.9487 24.228C91.6927 24.228 92.2987 24.012 92.7667 23.58C93.2467 23.136 93.4867 22.56 93.4867 21.852C93.4867 21.144 93.2467 20.574 92.7667 20.142C92.2987 19.698 91.6927 19.476 90.9487 19.476C90.2047 19.476 89.5927 19.698 89.1127 20.142C88.6327 20.574 88.3927 21.144 88.3927 21.852C88.3927 22.56 88.6327 23.136 89.1127 23.58C89.5927 24.012 90.2047 24.228 90.9487 24.228ZM103.07 27.216C102.074 27.216 101.108 27.084 100.172 26.82C99.2475 26.544 98.5035 26.19 97.9395 25.758L98.9295 23.562C99.4695 23.958 100.112 24.276 100.856 24.516C101.6 24.756 102.344 24.876 103.088 24.876C103.916 24.876 104.528 24.756 104.924 24.516C105.32 24.264 105.518 23.934 105.518 23.526C105.518 23.226 105.398 22.98 105.158 22.788C104.93 22.584 104.63 22.422 104.258 22.302C103.898 22.182 103.406 22.05 102.782 21.906C101.822 21.678 101.036 21.45 100.424 21.222C99.8115 20.994 99.2835 20.628 98.8395 20.124C98.4075 19.62 98.1915 18.948 98.1915 18.108C98.1915 17.376 98.3895 16.716 98.7855 16.128C99.1815 15.528 99.7755 15.054 100.568 14.706C101.372 14.358 102.35 14.184 103.502 14.184C104.306 14.184 105.092 14.28 105.86 14.472C106.628 14.664 107.3 14.94 107.876 15.3L106.976 17.514C105.812 16.854 104.648 16.524 103.484 16.524C102.668 16.524 102.062 16.656 101.666 16.92C101.282 17.184 101.09 17.532 101.09 17.964C101.09 18.396 101.312 18.72 101.756 18.936C102.212 19.14 102.902 19.344 103.826 19.548C104.786 19.776 105.572 20.004 106.184 20.232C106.796 20.46 107.318 20.82 107.75 21.312C108.194 21.804 108.416 22.47 108.416 23.31C108.416 24.03 108.212 24.69 107.804 25.29C107.408 25.878 106.808 26.346 106.004 26.694C105.2 27.042 104.222 27.216 103.07 27.216ZM115.934 17.172C116.834 17.172 117.65 17.382 118.382 17.802C119.126 18.21 119.708 18.792 120.128 19.548C120.548 20.292 120.758 21.162 120.758 22.158C120.758 23.154 120.548 24.03 120.128 24.786C119.708 25.53 119.126 26.112 118.382 26.532C117.65 26.94 116.834 27.144 115.934 27.144C114.698 27.144 113.726 26.754 113.018 25.974V30.492H110.21V17.316H112.892V18.432C113.588 17.592 114.602 17.172 115.934 17.172ZM115.448 24.84C116.168 24.84 116.756 24.6 117.212 24.12C117.68 23.628 117.914 22.974 117.914 22.158C117.914 21.342 117.68 20.694 117.212 20.214C116.756 19.722 116.168 19.476 115.448 19.476C114.728 19.476 114.134 19.722 113.666 20.214C113.21 20.694 112.982 21.342 112.982 22.158C112.982 22.974 113.21 23.628 113.666 24.12C114.134 24.6 114.728 24.84 115.448 24.84ZM127.246 27.144C126.226 27.144 125.308 26.934 124.492 26.514C123.688 26.082 123.058 25.488 122.602 24.732C122.146 23.976 121.918 23.118 121.918 22.158C121.918 21.198 122.146 20.34 122.602 19.584C123.058 18.828 123.688 18.24 124.492 17.82C125.308 17.388 126.226 17.172 127.246 17.172C128.266 17.172 129.178 17.388 129.982 17.82C130.786 18.24 131.416 18.828 131.872 19.584C132.328 20.34 132.556 21.198 132.556 22.158C132.556 23.118 132.328 23.976 131.872 24.732C131.416 25.488 130.786 26.082 129.982 26.514C129.178 26.934 128.266 27.144 127.246 27.144ZM127.246 24.84C127.966 24.84 128.554 24.6 129.01 24.12C129.478 23.628 129.712 22.974 129.712 22.158C129.712 21.342 129.478 20.694 129.01 20.214C128.554 19.722 127.966 19.476 127.246 19.476C126.526 19.476 125.932 19.722 125.464 20.214C124.996 20.694 124.762 21.342 124.762 22.158C124.762 22.974 124.996 23.628 125.464 24.12C125.932 24.6 126.526 24.84 127.246 24.84ZM140.679 26.532C140.403 26.736 140.061 26.892 139.653 27C139.257 27.096 138.837 27.144 138.393 27.144C137.241 27.144 136.347 26.85 135.711 26.262C135.087 25.674 134.775 24.81 134.775 23.67V19.692H133.281V17.532H134.775V15.174H137.583V17.532H139.995V19.692H137.583V23.634C137.583 24.042 137.685 24.36 137.889 24.588C138.105 24.804 138.405 24.912 138.789 24.912C139.233 24.912 139.611 24.792 139.923 24.552L140.679 26.532Z" fill="#282222"/>
</svg>
