<svg width="193" height="48" viewBox="0 0 193 48" fill="none" xmlns="http://www.w3.org/2000/svg">
<path d="M13.7407 3.23342C6.28866 3.19494 0.196476 9.22592 0.157998 16.6766C0.119521 24.1272 6.1505 30.2208 13.6011 30.2593C21.0518 30.2978 27.1454 24.2682 27.1839 16.8175C27.2223 9.3669 21.1914 3.2719 13.7407 3.23342ZM13.6245 25.732C8.67012 25.7064 4.66116 21.6544 4.68673 16.7014C4.71231 11.7484 8.76432 7.73799 13.7173 7.76357C18.6717 7.78916 22.6807 11.8412 22.6551 16.7942C22.6295 21.7472 18.5789 25.7575 13.6245 25.732Z" fill="#00F940"/>
<path d="M9.32323 34.8626C9.14697 35.1562 8.88506 35.3902 8.57147 35.5337C8.80242 35.2911 9.05442 35.0669 9.32323 34.8626Z" fill="#00F940"/>
<path d="M7.30669 47.2982C6.81001 47.1477 6.41029 46.7778 6.21826 46.3033C6.55463 46.6616 6.9179 46.9946 7.30669 47.2982Z" fill="#00F940"/>
<path d="M20.5527 31.6604C18.9519 33.765 16.4176 35.122 13.5746 35.1073C10.7316 35.0926 8.21147 33.7095 6.63246 31.5885C5.37676 32.3685 4.26235 33.3551 3.33741 34.5019C5.72366 37.5236 9.41082 39.4751 13.5519 39.4965C17.6931 39.5179 21.4002 37.6046 23.8175 34.6077C22.9059 33.4514 21.8017 32.4533 20.5527 31.6604Z" fill="#009933"/>
<path d="M22.6387 3.23286C23.4994 3.23731 24.2008 2.54311 24.2053 1.68234C24.2097 0.821561 23.5155 0.12016 22.6548 0.115715C21.794 0.11127 21.0926 0.805463 21.0881 1.66624C21.0837 2.52701 21.7779 3.22842 22.6387 3.23286Z" fill="#009933"/>
<path d="M58.596 30.216C57.288 30.216 56.106 29.934 55.05 29.37C54.006 28.806 53.184 28.032 52.584 27.048C51.996 26.052 51.702 24.936 51.702 23.7C51.702 22.464 51.996 21.354 52.584 20.37C53.184 19.374 54.006 18.594 55.05 18.03C56.106 17.466 57.288 17.184 58.596 17.184C59.904 17.184 61.08 17.466 62.124 18.03C63.168 18.594 63.99 19.374 64.59 20.37C65.19 21.354 65.49 22.464 65.49 23.7C65.49 24.936 65.19 26.052 64.59 27.048C63.99 28.032 63.168 28.806 62.124 29.37C61.08 29.934 59.904 30.216 58.596 30.216ZM58.596 27.732C59.34 27.732 60.012 27.564 60.612 27.228C61.212 26.88 61.68 26.4 62.016 25.788C62.364 25.176 62.538 24.48 62.538 23.7C62.538 22.92 62.364 22.224 62.016 21.612C61.68 21 61.212 20.526 60.612 20.19C60.012 19.842 59.34 19.668 58.596 19.668C57.852 19.668 57.18 19.842 56.58 20.19C55.98 20.526 55.506 21 55.158 21.612C54.822 22.224 54.654 22.92 54.654 23.7C54.654 24.48 54.822 25.176 55.158 25.788C55.506 26.4 55.98 26.88 56.58 27.228C57.18 27.564 57.852 27.732 58.596 27.732ZM73.3695 20.172C74.5695 20.172 75.5355 20.532 76.2675 21.252C77.0115 21.972 77.3835 23.04 77.3835 24.456V30H74.5755V24.888C74.5755 24.12 74.4075 23.55 74.0715 23.178C73.7355 22.794 73.2495 22.602 72.6135 22.602C71.9055 22.602 71.3415 22.824 70.9215 23.268C70.5015 23.7 70.2915 24.348 70.2915 25.212V30H67.4835V20.316H70.1655V21.45C70.5375 21.042 70.9995 20.73 71.5515 20.514C72.1035 20.286 72.7095 20.172 73.3695 20.172ZM89.5203 25.194C89.5203 25.23 89.5023 25.482 89.4663 25.95H82.1403C82.2723 26.55 82.5843 27.024 83.0763 27.372C83.5683 27.72 84.1803 27.894 84.9123 27.894C85.4163 27.894 85.8603 27.822 86.2443 27.678C86.6403 27.522 87.0063 27.282 87.3423 26.958L88.8363 28.578C87.9243 29.622 86.5923 30.144 84.8403 30.144C83.7483 30.144 82.7823 29.934 81.9423 29.514C81.1023 29.082 80.4543 28.488 79.9983 27.732C79.5423 26.976 79.3143 26.118 79.3143 25.158C79.3143 24.21 79.5363 23.358 79.9803 22.602C80.4363 21.834 81.0543 21.24 81.8343 20.82C82.6263 20.388 83.5083 20.172 84.4803 20.172C85.4283 20.172 86.2863 20.376 87.0543 20.784C87.8223 21.192 88.4223 21.78 88.8543 22.548C89.2983 23.304 89.5203 24.186 89.5203 25.194ZM84.4983 22.296C83.8623 22.296 83.3283 22.476 82.8963 22.836C82.4643 23.196 82.2003 23.688 82.1043 24.312H86.8743C86.7783 23.7 86.5143 23.214 86.0823 22.854C85.6503 22.482 85.1223 22.296 84.4983 22.296ZM105.199 23.502H107.863V28.614C107.179 29.13 106.387 29.526 105.487 29.802C104.587 30.078 103.681 30.216 102.769 30.216C101.461 30.216 100.285 29.94 99.2414 29.388C98.1974 28.824 97.3754 28.05 96.7754 27.066C96.1874 26.07 95.8934 24.948 95.8934 23.7C95.8934 22.452 96.1874 21.336 96.7754 20.352C97.3754 19.356 98.2034 18.582 99.2594 18.03C100.315 17.466 101.503 17.184 102.823 17.184C103.927 17.184 104.929 17.37 105.829 17.742C106.729 18.114 107.485 18.654 108.097 19.362L106.225 21.09C105.325 20.142 104.239 19.668 102.967 19.668C102.163 19.668 101.449 19.836 100.825 20.172C100.201 20.508 99.7154 20.982 99.3674 21.594C99.0194 22.206 98.8454 22.908 98.8454 23.7C98.8454 24.48 99.0194 25.176 99.3674 25.788C99.7154 26.4 100.195 26.88 100.807 27.228C101.431 27.564 102.139 27.732 102.931 27.732C103.771 27.732 104.527 27.552 105.199 27.192V23.502ZM114.982 30.144C113.962 30.144 113.044 29.934 112.228 29.514C111.424 29.082 110.794 28.488 110.338 27.732C109.882 26.976 109.654 26.118 109.654 25.158C109.654 24.198 109.882 23.34 110.338 22.584C110.794 21.828 111.424 21.24 112.228 20.82C113.044 20.388 113.962 20.172 114.982 20.172C116.002 20.172 116.914 20.388 117.718 20.82C118.522 21.24 119.152 21.828 119.608 22.584C120.064 23.34 120.292 24.198 120.292 25.158C120.292 26.118 120.064 26.976 119.608 27.732C119.152 28.488 118.522 29.082 117.718 29.514C116.914 29.934 116.002 30.144 114.982 30.144ZM114.982 27.84C115.702 27.84 116.29 27.6 116.746 27.12C117.214 26.628 117.448 25.974 117.448 25.158C117.448 24.342 117.214 23.694 116.746 23.214C116.29 22.722 115.702 22.476 114.982 22.476C114.262 22.476 113.668 22.722 113.2 23.214C112.732 23.694 112.498 24.342 112.498 25.158C112.498 25.974 112.732 26.628 113.2 27.12C113.668 27.6 114.262 27.84 114.982 27.84ZM126.777 30.144C125.757 30.144 124.839 29.934 124.023 29.514C123.219 29.082 122.589 28.488 122.133 27.732C121.677 26.976 121.449 26.118 121.449 25.158C121.449 24.198 121.677 23.34 122.133 22.584C122.589 21.828 123.219 21.24 124.023 20.82C124.839 20.388 125.757 20.172 126.777 20.172C127.797 20.172 128.709 20.388 129.513 20.82C130.317 21.24 130.947 21.828 131.403 22.584C131.859 23.34 132.087 24.198 132.087 25.158C132.087 26.118 131.859 26.976 131.403 27.732C130.947 28.488 130.317 29.082 129.513 29.514C128.709 29.934 127.797 30.144 126.777 30.144ZM126.777 27.84C127.497 27.84 128.085 27.6 128.541 27.12C129.009 26.628 129.243 25.974 129.243 25.158C129.243 24.342 129.009 23.694 128.541 23.214C128.085 22.722 127.497 22.476 126.777 22.476C126.057 22.476 125.463 22.722 124.995 23.214C124.527 23.694 124.293 24.342 124.293 25.158C124.293 25.974 124.527 26.628 124.995 27.12C125.463 27.6 126.057 27.84 126.777 27.84ZM143.828 16.644V30H141.146V28.884C140.45 29.724 139.442 30.144 138.122 30.144C137.21 30.144 136.382 29.94 135.638 29.532C134.906 29.124 134.33 28.542 133.91 27.786C133.49 27.03 133.28 26.154 133.28 25.158C133.28 24.162 133.49 23.286 133.91 22.53C134.33 21.774 134.906 21.192 135.638 20.784C136.382 20.376 137.21 20.172 138.122 20.172C139.358 20.172 140.324 20.562 141.02 21.342V16.644H143.828ZM138.608 27.84C139.316 27.84 139.904 27.6 140.372 27.12C140.84 26.628 141.074 25.974 141.074 25.158C141.074 24.342 140.84 23.694 140.372 23.214C139.904 22.722 139.316 22.476 138.608 22.476C137.888 22.476 137.294 22.722 136.826 23.214C136.358 23.694 136.124 24.342 136.124 25.158C136.124 25.974 136.358 26.628 136.826 27.12C137.294 27.6 137.888 27.84 138.608 27.84ZM151.723 17.4H157.447C158.815 17.4 160.021 17.664 161.065 18.192C162.121 18.708 162.937 19.44 163.513 20.388C164.101 21.336 164.395 22.44 164.395 23.7C164.395 24.96 164.101 26.064 163.513 27.012C162.937 27.96 162.121 28.698 161.065 29.226C160.021 29.742 158.815 30 157.447 30H151.723V17.4ZM157.303 27.606C158.563 27.606 159.565 27.258 160.309 26.562C161.065 25.854 161.443 24.9 161.443 23.7C161.443 22.5 161.065 21.552 160.309 20.856C159.565 20.148 158.563 19.794 157.303 19.794H154.639V27.606H157.303ZM175.882 25.194C175.882 25.23 175.864 25.482 175.828 25.95H168.502C168.634 26.55 168.946 27.024 169.438 27.372C169.93 27.72 170.542 27.894 171.274 27.894C171.778 27.894 172.222 27.822 172.606 27.678C173.002 27.522 173.368 27.282 173.704 26.958L175.198 28.578C174.286 29.622 172.954 30.144 171.202 30.144C170.11 30.144 169.144 29.934 168.304 29.514C167.464 29.082 166.816 28.488 166.36 27.732C165.904 26.976 165.676 26.118 165.676 25.158C165.676 24.21 165.898 23.358 166.342 22.602C166.798 21.834 167.416 21.24 168.196 20.82C168.988 20.388 169.87 20.172 170.842 20.172C171.79 20.172 172.648 20.376 173.416 20.784C174.184 21.192 174.784 21.78 175.216 22.548C175.66 23.304 175.882 24.186 175.882 25.194ZM170.86 22.296C170.224 22.296 169.69 22.476 169.258 22.836C168.826 23.196 168.562 23.688 168.466 24.312H173.236C173.14 23.7 172.876 23.214 172.444 22.854C172.012 22.482 171.484 22.296 170.86 22.296ZM181.393 20.172C182.893 20.172 184.045 20.532 184.849 21.252C185.653 21.96 186.055 23.034 186.055 24.474V30H183.427V28.794C182.899 29.694 181.915 30.144 180.475 30.144C179.731 30.144 179.083 30.018 178.531 29.766C177.991 29.514 177.577 29.166 177.289 28.722C177.001 28.278 176.857 27.774 176.857 27.21C176.857 26.31 177.193 25.602 177.865 25.086C178.549 24.57 179.599 24.312 181.015 24.312H183.247C183.247 23.7 183.061 23.232 182.689 22.908C182.317 22.572 181.759 22.404 181.015 22.404C180.499 22.404 179.989 22.488 179.485 22.656C178.993 22.812 178.573 23.028 178.225 23.304L177.217 21.342C177.745 20.97 178.375 20.682 179.107 20.478C179.851 20.274 180.613 20.172 181.393 20.172ZM181.177 28.254C181.657 28.254 182.083 28.146 182.455 27.93C182.827 27.702 183.091 27.372 183.247 26.94V25.95H181.321C180.169 25.95 179.593 26.328 179.593 27.084C179.593 27.444 179.731 27.732 180.007 27.948C180.295 28.152 180.685 28.254 181.177 28.254ZM188.597 16.644H191.405V30H188.597V16.644Z" fill="#5B4D4D"/>
</svg>
