<svg width="129" height="45" viewBox="0 0 129 45" fill="none" xmlns="http://www.w3.org/2000/svg">
<path d="M16.7407 0.233359C9.28866 0.194874 3.19648 6.22586 3.158 13.6765C3.11952 21.1272 9.1505 27.2208 16.6011 27.2592C24.0518 27.2977 30.1454 21.2681 30.1839 13.8175C30.2223 6.36684 24.1914 0.271836 16.7407 0.233359ZM16.6245 22.7319C11.6701 22.7063 7.66116 18.6543 7.68673 13.7013C7.71231 8.7483 11.7643 4.73793 16.7173 4.76351C21.6717 4.7891 25.6807 8.8411 25.6551 13.7941C25.6295 18.7471 21.5789 22.7575 16.6245 22.7319Z" fill="#FFFFFF" />
<path d="M12.3232 31.8625C12.147 32.1561 11.8851 32.3901 11.5715 32.5336C11.8024 32.291 12.0544 32.0669 12.3232 31.8625Z" fill="#FFFFFF" />
<path d="M10.3067 44.2981C9.81001 44.1476 9.41029 43.7777 9.21826 43.3032C9.55463 43.6615 9.9179 43.9945 10.3067 44.2981Z" fill="#FFFFFF" />
<path d="M2.55834 35.1252C3.41912 35.1296 4.12052 34.4354 4.12497 33.5747C4.12941 32.7139 3.43522 32.0125 2.57444 32.008C1.71367 32.0036 1.01227 32.6978 1.00782 33.5586C1.00337 34.4193 1.69757 35.1207 2.55834 35.1252Z" fill="#FFFFFF" />
<path d="M66.328 24.264C67.288 24.568 68.04 25.08 68.584 25.8C69.128 26.504 69.4 27.376 69.4 28.416C69.4 29.888 68.824 31.024 67.672 31.824C66.536 32.608 64.872 33 62.68 33H53.992V16.2H62.2C64.248 16.2 65.816 16.592 66.904 17.376C68.008 18.16 68.56 19.224 68.56 20.568C68.56 21.384 68.36 22.112 67.96 22.752C67.576 23.392 67.032 23.896 66.328 24.264ZM57.856 19.128V23.088H61.72C62.68 23.088 63.408 22.92 63.904 22.584C64.4 22.248 64.648 21.752 64.648 21.096C64.648 20.44 64.4 19.952 63.904 19.632C63.408 19.296 62.68 19.128 61.72 19.128H57.856ZM62.392 30.072C63.416 30.072 64.184 29.904 64.696 29.568C65.224 29.232 65.488 28.712 65.488 28.008C65.488 26.616 64.456 25.92 62.392 25.92H57.856V30.072H62.392ZM72.0796 20.088H75.8236V33H72.0796V20.088ZM73.9516 18.288C73.2636 18.288 72.7036 18.088 72.2716 17.688C71.8396 17.288 71.6236 16.792 71.6236 16.2C71.6236 15.608 71.8396 15.112 72.2716 14.712C72.7036 14.312 73.2636 14.112 73.9516 14.112C74.6396 14.112 75.1996 14.304 75.6316 14.688C76.0636 15.072 76.2796 15.552 76.2796 16.128C76.2796 16.752 76.0636 17.272 75.6316 17.688C75.1996 18.088 74.6396 18.288 73.9516 18.288ZM83.6423 33.192C82.5703 33.192 81.5223 33.064 80.4983 32.808C79.4743 32.536 78.6583 32.2 78.0503 31.8L79.2983 29.112C79.8743 29.48 80.5703 29.784 81.3863 30.024C82.2023 30.248 83.0023 30.36 83.7863 30.36C85.3703 30.36 86.1623 29.968 86.1623 29.184C86.1623 28.816 85.9463 28.552 85.5143 28.392C85.0823 28.232 84.4183 28.096 83.5223 27.984C82.4663 27.824 81.5943 27.64 80.9063 27.432C80.2183 27.224 79.6183 26.856 79.1063 26.328C78.6103 25.8 78.3623 25.048 78.3623 24.072C78.3623 23.256 78.5943 22.536 79.0583 21.912C79.5383 21.272 80.2263 20.776 81.1223 20.424C82.0343 20.072 83.1063 19.896 84.3383 19.896C85.2503 19.896 86.1543 20 87.0503 20.208C87.9623 20.4 88.7143 20.672 89.3063 21.024L88.0583 23.688C86.9223 23.048 85.6823 22.728 84.3383 22.728C83.5383 22.728 82.9383 22.84 82.5383 23.064C82.1383 23.288 81.9383 23.576 81.9383 23.928C81.9383 24.328 82.1543 24.608 82.5863 24.768C83.0183 24.928 83.7063 25.08 84.6503 25.224C85.7063 25.4 86.5703 25.592 87.2423 25.8C87.9143 25.992 88.4983 26.352 88.9943 26.88C89.4903 27.408 89.7383 28.144 89.7383 29.088C89.7383 29.888 89.4983 30.6 89.0183 31.224C88.5383 31.848 87.8343 32.336 86.9063 32.688C85.9943 33.024 84.9063 33.192 83.6423 33.192ZM98.1923 33.192C96.8323 33.192 95.6083 32.912 94.5203 32.352C93.4483 31.776 92.6083 30.984 92.0003 29.976C91.3923 28.968 91.0883 27.824 91.0883 26.544C91.0883 25.264 91.3923 24.12 92.0003 23.112C92.6083 22.104 93.4483 21.32 94.5203 20.76C95.6083 20.184 96.8323 19.896 98.1923 19.896C99.5523 19.896 100.768 20.184 101.84 20.76C102.912 21.32 103.752 22.104 104.36 23.112C104.968 24.12 105.272 25.264 105.272 26.544C105.272 27.824 104.968 28.968 104.36 29.976C103.752 30.984 102.912 31.776 101.84 32.352C100.768 32.912 99.5523 33.192 98.1923 33.192ZM98.1923 30.12C99.1523 30.12 99.9363 29.8 100.544 29.16C101.168 28.504 101.48 27.632 101.48 26.544C101.48 25.456 101.168 24.592 100.544 23.952C99.9363 23.296 99.1523 22.968 98.1923 22.968C97.2323 22.968 96.4403 23.296 95.8163 23.952C95.1923 24.592 94.8803 25.456 94.8803 26.544C94.8803 27.632 95.1923 28.504 95.8163 29.16C96.4403 29.8 97.2323 30.12 98.1923 30.12ZM107.775 15.192H111.519V33H107.775V15.192ZM120.202 19.896C122.202 19.896 123.738 20.376 124.81 21.336C125.882 22.28 126.418 23.712 126.418 25.632V33H122.914V31.392C122.21 32.592 120.898 33.192 118.978 33.192C117.986 33.192 117.122 33.024 116.386 32.688C115.666 32.352 115.114 31.888 114.73 31.296C114.346 30.704 114.154 30.032 114.154 29.28C114.154 28.08 114.602 27.136 115.498 26.448C116.41 25.76 117.81 25.416 119.698 25.416H122.674C122.674 24.6 122.426 23.976 121.93 23.544C121.434 23.096 120.69 22.872 119.698 22.872C119.01 22.872 118.33 22.984 117.658 23.208C117.002 23.416 116.442 23.704 115.978 24.072L114.634 21.456C115.338 20.96 116.178 20.576 117.154 20.304C118.146 20.032 119.162 19.896 120.202 19.896ZM119.914 30.672C120.554 30.672 121.122 30.528 121.618 30.24C122.114 29.936 122.466 29.496 122.674 28.92V27.6H120.106C118.57 27.6 117.802 28.104 117.802 29.112C117.802 29.592 117.986 29.976 118.354 30.264C118.738 30.536 119.258 30.672 119.914 30.672Z" fill="white"/>
</svg>
